<?xml version="1.0" encoding="UTF-8" standalone="no"?>
<!-- Created with Inkscape (http://www.inkscape.org/) -->

<svg
   xmlns:dc="http://purl.org/dc/elements/1.1/"
   xmlns:cc="http://creativecommons.org/ns#"
   xmlns:rdf="http://www.w3.org/1999/02/22-rdf-syntax-ns#"
   xmlns:svg="http://www.w3.org/2000/svg"
   xmlns="http://www.w3.org/2000/svg"
   xmlns:sodipodi="http://sodipodi.sourceforge.net/DTD/sodipodi-0.dtd"
   xmlns:inkscape="http://www.inkscape.org/namespaces/inkscape"
   width="210"
   height="35"
   viewBox="0 0 210.00001 35"
   id="svg9508"
   version="1.1"
   inkscape:version="0.91 r13725"
   sodipodi:docname="wordmark.svg">
  <defs
     id="defs9510" />
  <sodipodi:namedview
     id="base"
     pagecolor="#ffffff"
     bordercolor="#666666"
     borderopacity="1.0"
     inkscape:pageopacity="0.0"
     inkscape:pageshadow="2"
     inkscape:zoom="2.3269531"
     inkscape:cx="146.23745"
     inkscape:cy="52.710681"
     inkscape:document-units="px"
     inkscape:current-layer="g9470"
     showgrid="false"
     inkscape:window-width="1280"
     inkscape:window-height="1000"
     inkscape:window-x="0"
     inkscape:window-y="24"
     inkscape:window-maximized="1"
     units="px" />
  <metadata
     id="metadata9513">
    <rdf:RDF>
      <cc:Work
         rdf:about="">
        <dc:format>image/svg+xml</dc:format>
        <dc:type
           rdf:resource="http://purl.org/dc/dcmitype/StillImage" />
        <dc:title></dc:title>
      </cc:Work>
    </rdf:RDF>
  </metadata>
  <g
     inkscape:label="Layer 1"
     inkscape:groupmode="layer"
     id="layer1"
     transform="translate(0,-1017.3622)">
    <g
       transform="matrix(0.74880312,0,0,0.74880312,-3878.8391,-6540.3612)"
       id="g9470"
       style="fill:#ffffff"
       inkscape:export-filename="/home/tola/Code/webianproject/home/images/webian_home_wordmark.png"
       inkscape:export-xdpi="67.68309"
       inkscape:export-ydpi="67.68309">
      <g
         style="font-style:normal;font-weight:normal;font-size:17.79429245px;font-family:'Bitstream Vera Sans';fill:#ffffff;fill-opacity:1;stroke:none"
         id="g9472"
         transform="matrix(2.8068077,0,0,2.8068077,2595.0431,8778.7)">
        <path
           d="m 925.39789,475.577 1.39062,4.76562 1.26563,-4.42969 c 0.13541,-0.46353 0.23437,-0.77863 0.29687,-0.94531 0.0677,-0.17187 0.1901,-0.33332 0.36719,-0.48437 0.18229,-0.15625 0.42968,-0.23437 0.74219,-0.23438 0.3177,10e-6 0.5651,0.0781 0.74219,0.23438 0.18228,0.15105 0.30988,0.31771 0.38281,0.5 0.0729,0.17709 0.17447,0.48698 0.30469,0.92968 l 1.26562,4.42969 1.40625,-4.76562 c 0.0937,-0.34375 0.16926,-0.59114 0.22656,-0.74219 0.0573,-0.15624 0.15364,-0.29166 0.28907,-0.40625 0.1354,-0.11978 0.33071,-0.17968 0.58593,-0.17969 0.2552,10e-6 0.47655,0.0885 0.66407,0.26563 0.18748,0.17709 0.28123,0.38542 0.28125,0.625 -2e-5,0.21875 -0.0807,0.54948 -0.24219,0.99218 l -1.74219,5.10938 c -0.15105,0.43229 -0.26824,0.74479 -0.35156,0.9375 -0.0833,0.19271 -0.21616,0.36458 -0.39844,0.51562 -0.17709,0.15104 -0.42188,0.22657 -0.73437,0.22657 -0.32293,0 -0.57814,-0.0807 -0.76563,-0.24219 -0.1823,-0.16146 -0.31772,-0.35938 -0.40625,-0.59375 -0.0886,-0.23438 -0.1849,-0.53906 -0.28906,-0.91406 l -1.21875,-4.15625 -1.17969,4.15625 c -0.15625,0.57812 -0.32553,1.01562 -0.50781,1.3125 -0.1823,0.29166 -0.50261,0.4375 -0.96094,0.4375 -0.23438,0 -0.4349,-0.0469 -0.60156,-0.14063 -0.16146,-0.0885 -0.29688,-0.21614 -0.40625,-0.38281 -0.10938,-0.17188 -0.20573,-0.3724 -0.28906,-0.60156 -0.0833,-0.23438 -0.14844,-0.41927 -0.19532,-0.55469 l -1.72656,-5.10938 c -0.17187,-0.47916 -0.25781,-0.80989 -0.25781,-0.99218 0,-0.22916 0.0911,-0.43489 0.27344,-0.61719 0.18229,-0.18228 0.40624,-0.27343 0.67187,-0.27344 0.35417,10e-6 0.59375,0.10157 0.71875,0.30469 0.125,0.19792 0.25781,0.53907 0.39844,1.02344"
           style="font-variant:normal;font-weight:bold;font-stretch:normal;font-size:16px;font-family:'Arial Rounded MT Bold';-inkscape-font-specification:'Arial Rounded MT Bold, Bold';text-align:center;text-anchor:middle;fill:#ffffff;fill-opacity:1"
           id="path9474"
           inkscape:connector-curvature="0" />
        <path
           d="m 942.83539,479.10825 -4.17188,0 c 0.005,0.48437 0.10156,0.91146 0.28907,1.28125 0.1927,0.36979 0.4453,0.64844 0.75781,0.83593 0.3177,0.1875 0.66666,0.28125 1.04687,0.28125 0.25521,0 0.48698,-0.0286 0.69532,-0.0859 0.21353,-0.0625 0.41926,-0.15625 0.61718,-0.28125 0.19791,-0.13021 0.3802,-0.26823 0.54688,-0.41407 0.16666,-0.14583 0.3828,-0.34374 0.64844,-0.59375 0.10936,-0.0937 0.26561,-0.14062 0.46875,-0.14062 0.21874,0 0.39582,0.0599 0.53125,0.17969 0.1354,0.11979 0.20311,0.28906 0.20312,0.50781 -10e-6,0.19271 -0.0755,0.41927 -0.22656,0.67969 -0.15105,0.25521 -0.38022,0.5026 -0.6875,0.74218 -0.30209,0.23438 -0.6849,0.42969 -1.14844,0.58594 -0.45834,0.15625 -0.98698,0.23438 -1.58594,0.23438 -1.36979,0 -2.4349,-0.39063 -3.19531,-1.17188 -0.76042,-0.78125 -1.14063,-1.84114 -1.14062,-3.17969 -10e-6,-0.6302 0.0937,-1.21353 0.28125,-1.75 0.18749,-0.54166 0.46093,-1.0052 0.82031,-1.39062 0.35937,-0.38541 0.80208,-0.67968 1.32812,-0.88281 0.52604,-0.20833 1.10937,-0.3125 1.75,-0.3125 0.83333,0 1.54687,0.17709 2.14063,0.53125 0.59895,0.34896 1.04687,0.80209 1.34375,1.35937 0.29686,0.5573 0.4453,1.12501 0.44531,1.70313 -10e-6,0.53646 -0.15365,0.88542 -0.46094,1.04687 -0.3073,0.15625 -0.73959,0.23438 -1.29687,0.23438 m -4.17188,-1.21094 3.86719,0 c -0.0521,-0.72916 -0.25001,-1.27343 -0.59375,-1.63281 -0.33855,-0.36458 -0.78646,-0.54687 -1.34375,-0.54688 -0.53125,1e-5 -0.96875,0.1849 -1.3125,0.55469 -0.33854,0.36459 -0.54427,0.90625 -0.61719,1.625"
           style="font-variant:normal;font-weight:bold;font-stretch:normal;font-size:16px;font-family:'Arial Rounded MT Bold';-inkscape-font-specification:'Arial Rounded MT Bold, Bold';text-align:center;text-anchor:middle;fill:#ffffff;fill-opacity:1"
           id="path9476"
           inkscape:connector-curvature="0" />
        <path
           d="m 948.13226,472.29575 0,3.25781 c 0.40104,-0.41666 0.8099,-0.73437 1.22657,-0.95313 0.41666,-0.22395 0.93228,-0.33593 1.54687,-0.33593 0.70833,0 1.32812,0.16927 1.85938,0.50781 0.53645,0.33334 0.95051,0.82032 1.24218,1.46094 0.29687,0.63542 0.44531,1.39063 0.44532,2.26562 -10e-6,0.64584 -0.0833,1.23959 -0.25,1.78125 -0.16147,0.53646 -0.39845,1.00261 -0.71094,1.39844 -0.31251,0.39583 -0.69272,0.70312 -1.14063,0.92187 -0.44271,0.21354 -0.93229,0.32032 -1.46875,0.32032 -0.32813,0 -0.63802,-0.0391 -0.92968,-0.11719 -0.28647,-0.0781 -0.53126,-0.17969 -0.73438,-0.30469 -0.20313,-0.13021 -0.37761,-0.26302 -0.52344,-0.39844 -0.14063,-0.13541 -0.32813,-0.33854 -0.5625,-0.60937 l 0,0.21094 c 0,0.40104 -0.0964,0.70573 -0.28906,0.91406 -0.19271,0.20312 -0.4375,0.30469 -0.73437,0.30469 -0.30209,0 -0.54428,-0.10157 -0.72657,-0.30469 -0.17708,-0.20833 -0.26562,-0.51302 -0.26562,-0.91406 l 0,-9.3125 c 0,-0.43229 0.0859,-0.75781 0.25781,-0.97657 0.17708,-0.22394 0.42187,-0.33592 0.73438,-0.33593 0.32812,10e-6 0.58072,0.10678 0.75781,0.32031 0.17708,0.20834 0.26562,0.50782 0.26562,0.89844 m 0.10157,6.33593 c -10e-6,0.84896 0.1927,1.50261 0.57812,1.96094 0.39062,0.45313 0.90104,0.67969 1.53125,0.67969 0.53645,0 0.99739,-0.23177 1.38281,-0.69531 0.39062,-0.46875 0.58593,-1.13802 0.58594,-2.00782 -10e-6,-0.56249 -0.0807,-1.04687 -0.24219,-1.45312 -0.16146,-0.40625 -0.39063,-0.71875 -0.6875,-0.9375 -0.29688,-0.22395 -0.64323,-0.33593 -1.03906,-0.33594 -0.40625,10e-6 -0.76823,0.11199 -1.08594,0.33594 -0.31771,0.21875 -0.56771,0.53907 -0.75,0.96094 -0.18229,0.41667 -0.27344,0.91406 -0.27343,1.49218"
           style="font-variant:normal;font-weight:bold;font-stretch:normal;font-size:16px;font-family:'Arial Rounded MT Bold';-inkscape-font-specification:'Arial Rounded MT Bold, Bold';text-align:center;text-anchor:middle;fill:#ffffff;fill-opacity:1"
           id="path9478"
           inkscape:connector-curvature="0" />
        <path
           d="m 958.32758,475.45981 0,6.16406 c -10e-6,0.42708 -0.10157,0.75 -0.30469,0.96875 -0.20313,0.21875 -0.46094,0.32813 -0.77344,0.32813 -0.3125,0 -0.56771,-0.11198 -0.76562,-0.33594 -0.19271,-0.22396 -0.28907,-0.54427 -0.28907,-0.96094 l 0,-6.10156 c 0,-0.42187 0.0964,-0.73958 0.28907,-0.95313 0.19791,-0.21353 0.45312,-0.3203 0.76562,-0.32031 0.3125,10e-6 0.57031,0.10678 0.77344,0.32031 0.20312,0.21355 0.30468,0.51043 0.30469,0.89063 m -1.05469,-2.20313 c -0.29688,10e-6 -0.55209,-0.0911 -0.76563,-0.27343 -0.20833,-0.18229 -0.3125,-0.4401 -0.3125,-0.77344 0,-0.30207 0.10677,-0.54947 0.32032,-0.74219 0.21874,-0.1979 0.47135,-0.29686 0.75781,-0.29687 0.27604,10e-6 0.52083,0.0885 0.73437,0.26562 0.21354,0.1771 0.32031,0.43491 0.32032,0.77344 -10e-6,0.32813 -0.10417,0.58595 -0.3125,0.77344 -0.20834,0.1823 -0.45574,0.27344 -0.74219,0.27343"
           style="font-variant:normal;font-weight:bold;font-stretch:normal;font-size:16px;font-family:'Arial Rounded MT Bold';-inkscape-font-specification:'Arial Rounded MT Bold, Bold';text-align:center;text-anchor:middle;fill:#ffffff;fill-opacity:1"
           id="path9480"
           inkscape:connector-curvature="0" />
        <path
           d="m 965.92914,481.71762 c -0.51563,0.40104 -1.01563,0.70313 -1.5,0.90625 -0.47917,0.19792 -1.01823,0.29688 -1.61719,0.29688 -0.54688,0 -1.02865,-0.10678 -1.44531,-0.32032 -0.41146,-0.21875 -0.72917,-0.51302 -0.95313,-0.88281 -0.22396,-0.36979 -0.33593,-0.77083 -0.33593,-1.20312 0,-0.58333 0.18489,-1.08073 0.55468,-1.49219 0.36979,-0.41146 0.87761,-0.6875 1.52344,-0.82813 0.13541,-0.0312 0.47135,-0.10155 1.00781,-0.21093 0.53646,-0.10937 0.99479,-0.20833 1.375,-0.29688 0.38541,-0.0937 0.80208,-0.20572 1.25,-0.33594 -0.026,-0.56249 -0.14063,-0.97395 -0.34375,-1.23437 -0.19792,-0.26562 -0.61198,-0.39843 -1.24218,-0.39844 -0.54168,10e-6 -0.95053,0.0755 -1.22657,0.22656 -0.27083,0.15105 -0.50521,0.37761 -0.70312,0.67969 -0.19271,0.30209 -0.33073,0.50261 -0.41406,0.60156 -0.0781,0.0938 -0.25001,0.14063 -0.51563,0.14063 -0.23958,0 -0.44792,-0.0755 -0.625,-0.22656 -0.17188,-0.15625 -0.25781,-0.35416 -0.25781,-0.59375 0,-0.375 0.13281,-0.73958 0.39844,-1.09375 0.26562,-0.35416 0.67968,-0.64583 1.24218,-0.875 0.5625,-0.22916 1.26302,-0.34375 2.10157,-0.34375 0.93749,0 1.67447,0.11198 2.21093,0.33593 0.53645,0.21876 0.91406,0.56772 1.13282,1.04688 0.22395,0.47917 0.33592,1.11459 0.33593,1.90625 -10e-6,0.5 -0.003,0.92448 -0.008,1.27344 -1e-5,0.34896 -0.003,0.73698 -0.008,1.16406 -10e-6,0.40104 0.0651,0.82031 0.19531,1.25781 0.13541,0.43229 0.20312,0.71094 0.20313,0.83594 -10e-6,0.21875 -0.10418,0.41927 -0.3125,0.60156 -0.20314,0.17708 -0.43491,0.26563 -0.69532,0.26563 -0.21875,0 -0.4349,-0.10157 -0.64843,-0.30469 -0.21355,-0.20833 -0.44012,-0.50781 -0.67969,-0.89844 m -0.14063,-3.08594 c -0.3125,0.11459 -0.76823,0.23699 -1.36718,0.36719 -0.59376,0.125 -1.00522,0.21875 -1.23438,0.28125 -0.22917,0.0573 -0.44792,0.17448 -0.65625,0.35156 -0.20834,0.17188 -0.3125,0.41407 -0.3125,0.72657 0,0.32291 0.12239,0.59896 0.36719,0.82812 0.24479,0.22396 0.5651,0.33594 0.96094,0.33594 0.42187,0 0.80989,-0.0912 1.16406,-0.27344 0.35937,-0.1875 0.62239,-0.42708 0.78906,-0.71875 0.1927,-0.32291 0.28906,-0.85416 0.28906,-1.59375 l 0,-0.30469"
           style="font-variant:normal;font-weight:bold;font-stretch:normal;font-size:16px;font-family:'Arial Rounded MT Bold';-inkscape-font-specification:'Arial Rounded MT Bold, Bold';text-align:center;text-anchor:middle;fill:#ffffff;fill-opacity:1"
           id="path9482"
           inkscape:connector-curvature="0" />
        <path
           d="m 971.97601,475.42856 0,0.25781 c 0.375,-0.49478 0.78385,-0.85676 1.22657,-1.08594 0.44791,-0.23436 0.96093,-0.35155 1.53906,-0.35156 0.56249,10e-6 1.0651,0.12241 1.50781,0.36719 0.4427,0.2448 0.77343,0.59115 0.99219,1.03906 0.14061,0.26042 0.23176,0.54167 0.27344,0.84375 0.0417,0.30209 0.0625,0.68751 0.0625,1.15625 l 0,3.96875 c -10e-6,0.42708 -0.099,0.75 -0.29688,0.96875 -0.19272,0.21875 -0.44532,0.32813 -0.75781,0.32813 -0.31772,0 -0.57553,-0.11198 -0.77344,-0.33594 -0.19792,-0.22396 -0.29688,-0.54427 -0.29687,-0.96094 l 0,-3.55469 c -10e-6,-0.70312 -0.099,-1.23957 -0.29688,-1.60937 -0.19271,-0.375 -0.58073,-0.56249 -1.16406,-0.5625 -0.38021,10e-6 -0.72657,0.11459 -1.03906,0.34375 -0.31251,0.22396 -0.54167,0.53386 -0.6875,0.92969 -0.10417,0.31771 -0.15626,0.91146 -0.15625,1.78125 l 0,2.67187 c -10e-6,0.43229 -0.10157,0.75781 -0.30469,0.97656 -0.19792,0.21354 -0.45573,0.32032 -0.77344,0.32032 -0.30729,0 -0.5599,-0.11198 -0.75781,-0.33594 -0.19792,-0.22396 -0.29688,-0.54427 -0.29688,-0.96094 l 0,-6.16406 c 0,-0.40624 0.0885,-0.70833 0.26563,-0.90625 0.17708,-0.20312 0.41927,-0.30468 0.72656,-0.30469 0.1875,10e-6 0.35677,0.0443 0.50781,0.13281 0.15104,0.0885 0.27083,0.22137 0.35938,0.39844 0.0937,0.17709 0.14062,0.39324 0.14062,0.64844"
           style="font-variant:normal;font-weight:bold;font-stretch:normal;font-size:16px;font-family:'Arial Rounded MT Bold';-inkscape-font-specification:'Arial Rounded MT Bold, Bold';text-align:center;text-anchor:middle;fill:#ffffff;fill-opacity:1"
           id="path9484"
           inkscape:connector-curvature="0" />
      </g>
      <text
         sodipodi:linespacing="125%"
         id="text9486"
         y="10132.511"
         x="5343.5654"
         style="font-style:normal;font-weight:normal;font-size:41.95874023px;line-height:125%;font-family:Helvetica;-inkscape-font-specification:Helvetica;letter-spacing:0px;word-spacing:0px;fill:#ffffff;fill-opacity:1;stroke:none"
         xml:space="preserve"><tspan
           style="font-family:Helvetica;-inkscape-font-specification:Helvetica;fill:#ffffff"
           y="10132.511"
           x="5343.5654"
           id="tspan9488"
           sodipodi:role="line">Home</tspan></text>
    </g>
  </g>
</svg>
