# Blender v2.76 (sub 0) OBJ File: 'house2.blend'
# www.blender.org
mtllib house2.mtl
o Cube.002
v 1.063304 3.004930 -1.048863
v 1.063304 3.004930 0.951137
v -0.936696 3.004930 0.951137
v -0.936696 3.004930 -1.048863
v 1.063304 5.004930 -1.048862
v 1.063303 5.004930 0.951138
v -0.936697 5.004930 0.951137
v -0.936696 5.004930 -1.048863
vn 0.000000 -1.000000 -0.000000
vn 0.000000 1.000000 0.000000
vn 1.000000 0.000000 0.000000
vn -0.000000 -0.000000 1.000000
vn -1.000000 -0.000000 -0.000000
vn 0.000000 0.000000 -1.000000
usemtl Material
s off
f 1//1 2//1 3//1 4//1
f 5//2 8//2 7//2 6//2
f 1//3 5//3 6//3 2//3
f 2//4 6//4 7//4 3//4
f 3//5 7//5 8//5 4//5
f 5//6 1//6 4//6 8//6
o Cube.001
v 1.062440 -0.990598 -1.035971
v 1.062440 -0.990598 0.964029
v -0.937560 -0.990598 0.964029
v -0.937559 -0.990598 -1.035971
v 1.062441 1.009402 -1.035970
v 1.062440 1.009402 0.964030
v -0.937560 1.009402 0.964029
v -0.937560 1.009402 -1.035971
vn 0.000000 -1.000000 0.000000
vn 0.000000 1.000000 0.000000
vn 1.000000 0.000000 0.000000
vn -0.000000 -0.000000 1.000000
vn -1.000000 -0.000000 -0.000000
vn 0.000000 0.000000 -1.000000
usemtl Material
s off
f 9//7 10//7 11//7 12//7
f 13//8 16//8 15//8 14//8
f 9//9 13//9 14//9 10//9
f 10//10 14//10 15//10 11//10
f 11//11 15//11 16//11 12//11
f 13//12 9//12 12//12 16//12
o Cube
v 1.066660 1.006533 -1.051675
v 1.066660 1.006533 0.948325
v -0.933340 1.006533 0.948325
v -0.933340 1.006533 -1.051676
v 1.066660 3.006533 -1.051675
v 1.066659 3.006533 0.948325
v -0.933340 3.006533 0.948324
v -0.933340 3.006533 -1.051675
vn 0.000000 -1.000000 -0.000000
vn 0.000000 1.000000 0.000000
vn 1.000000 0.000000 0.000000
vn -0.000000 -0.000000 1.000000
vn -1.000000 -0.000000 -0.000000
vn 0.000000 0.000000 -1.000000
usemtl Material
s off
f 17//13 18//13 19//13 20//13
f 21//14 24//14 23//14 22//14
f 17//15 21//15 22//15 18//15
f 18//16 22//16 23//16 19//16
f 19//17 23//17 24//17 20//17
f 21//18 17//18 20//18 24//18
